<svg xmlns="http://www.w3.org/2000/svg" width="105.62" height="53.219" viewBox="0 0 105.62 53.219">
  <g id="paytm-service-agent-logo" transform="translate(-946.517 -527.586)">
    <g id="Group_18932" data-name="Group 18932" transform="translate(947.086 527.586)">
      <g id="Group_18931" data-name="Group 18931" transform="translate(0)">
        <g id="Group_18930" data-name="Group 18930">
          <g id="Group_18929" data-name="Group 18929">
            <g id="Group_18928" data-name="Group 18928">
              <g id="Group_18927" data-name="Group 18927">
                <path id="Path_17722" data-name="Path 17722" d="M259,51.1a6.983,6.983,0,0,0-6.591-4.675h-.064a6.96,6.96,0,0,0-5.035,2.147,6.959,6.959,0,0,0-5.034-2.147h-.064a6.951,6.951,0,0,0-4.552,1.691v-.533a1.031,1.031,0,0,0-1.024-.957h-4.672a1.034,1.034,0,0,0-1.033,1.035V73.035a1.034,1.034,0,0,0,1.033,1.034h4.672a1.03,1.03,0,0,0,1.018-.894l0-18.211c0-.062,0-.123.009-.184a1.7,1.7,0,0,1,1.611-1.564h.862a1.8,1.8,0,0,1,.985.381,1.721,1.721,0,0,1,.633,1.366l.018,18.122a1.034,1.034,0,0,0,1.033,1.034h4.671a1.031,1.031,0,0,0,1.027-.984l0-18.2a1.707,1.707,0,0,1,.762-1.459,1.84,1.84,0,0,1,.858-.288h.862a1.708,1.708,0,0,1,1.619,1.747l.017,18.1a1.034,1.034,0,0,0,1.034,1.034h4.671a1.034,1.034,0,0,0,1.033-1.034V53.574A6.53,6.53,0,0,0,259,51.1Z" transform="translate(-154.995 -41.555)" fill="#00baf2"/>
                <path id="Path_17723" data-name="Path 17723" d="M208.722,41.065h-2.671v-4.31h0v-.008a.943.943,0,0,0-.943-.944.913.913,0,0,0-.178.019c-2.964.809-2.369,4.9-7.777,5.243h-.526a1.054,1.054,0,0,0-.226.026h0a1.029,1.029,0,0,0-.806,1v4.65a1.031,1.031,0,0,0,1.033,1.03h2.819l0,19.722a1.02,1.02,0,0,0,1.021,1.018h4.619A1.02,1.02,0,0,0,206.1,67.5V47.774h2.617a1.031,1.031,0,0,0,1.032-1.03v-4.65A1.031,1.031,0,0,0,208.722,41.065Z" transform="translate(-136.184 -35.803)" fill="#00baf2"/>
                <path id="Path_17724" data-name="Path 17724" d="M169.238,47h-4.671a1.033,1.033,0,0,0-1.032,1.033v9.661a1.094,1.094,0,0,1-1.093,1.077h-1.958a1.1,1.1,0,0,1-1.094-1.095l-.02-9.644A1.033,1.033,0,0,0,158.337,47h-4.67a1.033,1.033,0,0,0-1.033,1.033V58.617a6.629,6.629,0,0,0,6.891,6.888s3.019,0,3.112.018a1.088,1.088,0,0,1,.015,2.161l-.078.014-6.833.025a1.034,1.034,0,0,0-1.033,1.034v4.67a1.033,1.033,0,0,0,1.033,1.032h7.639a6.629,6.629,0,0,0,6.891-6.888V48.03A1.034,1.034,0,0,0,169.238,47Z" transform="translate(-113.413 -41.855)" fill="#002970"/>
                <path id="Path_17725" data-name="Path 17725" d="M80.35,47H70.14a1.013,1.013,0,0,0-1.013,1.013v4.577a.083.083,0,0,0,0,.017c0,.031,0,.052,0,.075V73.392a1.007,1.007,0,0,0,.944,1.036h4.759a1.033,1.033,0,0,0,1.033-1.034l.018-7.1H80.35A6.062,6.062,0,0,0,86.7,59.944v-6.59A6.07,6.07,0,0,0,80.35,47Zm-.41,8.561v2.882a1.1,1.1,0,0,1-1.094,1.095l-2.964,0V53.759h2.964a1.1,1.1,0,0,1,1.094,1.094Z" transform="translate(-69.127 -41.854)" fill="#002970"/>
                <path id="Path_17726" data-name="Path 17726" d="M120.06,47.053h-6.482a1.007,1.007,0,0,0-1.038.969v1.816l0,.037a.143.143,0,0,1,0,.025v2.5a1.066,1.066,0,0,0,1.1,1.027h6.172a1.072,1.072,0,0,1,.929.987v.6a1.036,1.036,0,0,1-.9.96h-3.055c-4.066,0-6.963,2.7-6.963,6.492v5.435a6.12,6.12,0,0,0,6.527,6.452h8.472a2.665,2.665,0,0,0,2.753-2.568V54.065C127.572,49.766,125.355,47.053,120.06,47.053Zm.744,19.5v.73a.933.933,0,0,1-.019.172,1.105,1.105,0,0,1-.042.152h0a1.094,1.094,0,0,1-1.04.7h-1.944a1.066,1.066,0,0,1-1.1-1.027V66.4l0-.032,0-2.345v-.74a1.066,1.066,0,0,1,1.1-1.022H119.7a1.066,1.066,0,0,1,1.1,1.027Z" transform="translate(-90.708 -41.885)" fill="#002970"/>
              </g>
            </g>
          </g>
        </g>
      </g>
    </g>
    <path id="Path_37347" data-name="Path 37347" d="M-114.615-23.768h1.984c-.039-1.923-1.679-3.285-4.1-3.285-2.39,0-4.185,1.345-4.18,3.357,0,1.634,1.162,2.574,3.035,3.057l1.3.333c1.228.311,2.04.695,2.045,1.579-.006.973-.928,1.623-2.273,1.623-1.29,0-2.29-.578-2.373-1.773h-2.029c.083,2.262,1.768,3.535,4.419,3.535,2.729,0,4.313-1.362,4.319-3.368-.006-1.973-1.634-2.874-3.346-3.279l-1.067-.267c-.934-.222-1.945-.617-1.934-1.567.006-.856.773-1.484,2.062-1.484C-115.532-25.307-114.72-24.735-114.615-23.768Zm7.665,8.421c1.99,0,3.357-.973,3.713-2.457l-1.879-.211a1.781,1.781,0,0,1-1.806,1.1,2.1,2.1,0,0,1-2.179-2.318h5.947v-.617c0-3-1.8-4.313-3.9-4.313-2.446,0-4.041,1.8-4.041,4.43C-111.1-17.053-109.523-15.347-106.95-15.347Zm-2.146-5.242a2.052,2.052,0,0,1,2.068-2.007,1.9,1.9,0,0,1,1.945,2.007Zm7.643,5.075h2.012v-5.019a1.824,1.824,0,0,1,1.923-1.851,3.845,3.845,0,0,1,.934.117v-1.851a4.832,4.832,0,0,0-.723-.056,2.132,2.132,0,0,0-2.107,1.545H-99.5v-1.423h-1.951Zm14.1-8.538h-2.14l-1.968,6.342h-.089l-1.962-6.342h-2.146l3.04,8.538h2.223Zm1.39,8.538h2.012v-8.538h-2.012Zm1.012-9.749a1.13,1.13,0,0,0,1.162-1.089,1.131,1.131,0,0,0-1.162-1.095,1.132,1.132,0,0,0-1.167,1.095A1.131,1.131,0,0,0-84.95-25.263Zm6.792,9.916A3.348,3.348,0,0,0-74.5-18.432h-1.923a1.665,1.665,0,0,1-1.718,1.445c-1.256,0-2.068-1.051-2.068-2.8,0-1.723.828-2.757,2.068-2.757a1.673,1.673,0,0,1,1.718,1.445H-74.5a3.353,3.353,0,0,0-3.668-3.068c-2.5,0-4.08,1.806-4.08,4.413C-82.248-17.165-80.709-15.347-78.157-15.347Zm9.093,0c1.99,0,3.357-.973,3.713-2.457l-1.879-.211a1.781,1.781,0,0,1-1.806,1.1,2.1,2.1,0,0,1-2.179-2.318h5.947v-.617c0-3-1.8-4.313-3.9-4.313-2.446,0-4.041,1.8-4.041,4.43C-73.211-17.053-71.638-15.347-69.064-15.347Zm-2.146-5.242a2.052,2.052,0,0,1,2.068-2.007A1.9,1.9,0,0,1-67.2-20.588Zm13.079,5.075.939-2.807h4.28l.945,2.807h2.2L-53.779-26.9h-2.546l-4.008,11.383Zm1.5-4.463,1.54-4.586h.089l1.54,4.586Zm11.728,7.809c2.307,0,4.008-1.056,4.008-3.207v-8.677h-1.984v1.412H-43a2.55,2.55,0,0,0-2.451-1.523c-1.973,0-3.524,1.545-3.524,4.352,0,2.785,1.551,4.174,3.518,4.174A2.538,2.538,0,0,0-43-17.048h.1v1.617c0,1.223-.834,1.74-1.979,1.74a2.036,2.036,0,0,1-1.99-1.039l-1.812.439C-48.309-13.129-47.081-12.168-44.908-12.168Zm.017-5.047c-1.328,0-2.029-1.034-2.029-2.607,0-1.551.689-2.69,2.029-2.69,1.3,0,2.007,1.073,2.007,2.69S-43.607-17.215-44.891-17.215Zm9.838,1.868c1.99,0,3.357-.973,3.713-2.457l-1.879-.211a1.781,1.781,0,0,1-1.806,1.1A2.1,2.1,0,0,1-37.2-19.232h5.947v-.617c0-3-1.8-4.313-3.9-4.313-2.446,0-4.041,1.8-4.041,4.43C-39.2-17.053-37.626-15.347-35.053-15.347ZM-37.2-20.588a2.052,2.052,0,0,1,2.068-2.007,1.9,1.9,0,0,1,1.945,2.007Zm9.655.072a1.753,1.753,0,0,1,1.806-1.945,1.607,1.607,0,0,1,1.662,1.823v5.125h2.012V-20.95c.006-2.045-1.162-3.213-2.924-3.213A2.563,2.563,0,0,0-27.532-22.6h-.1v-1.451h-1.923v8.538h2.012Zm11.795-3.535h-1.684V-26.1h-2.012v2.045h-1.212v1.556h1.212v4.747A2.3,2.3,0,0,0-16.777-15.4a4.044,4.044,0,0,0,1.184-.2l-.339-1.573a2.509,2.509,0,0,1-.589.078c-.506,0-.912-.178-.912-.989v-4.413h1.684Z" transform="translate(1067.73 592.973)"/>
  </g>
</svg>
